<svg width="505" height="536" viewBox="0 0 505 536" fill="none" xmlns="http://www.w3.org/2000/svg">
<path fillRule="evenodd" clipRule="evenodd" d="M49.3624 -479.322H-949.243C-968.573 -479.322 -984.243 -494.992 -984.243 -514.322L-984.243 -742C-984.243 -761.33 -968.573 -777 -949.243 -777H49.3624C192.804 -777 296.982 -696.726 359.37 -612.058C419.722 -530.151 454.536 -427.342 454.536 -338.752C454.536 -197.993 405.191 -85.6955 325.156 -4.05959C248.437 74.1929 152.345 115.542 68.9235 136.397L67.8352 136.669L-1065.08 401.821C-1083.91 406.226 -1102.73 394.539 -1107.14 375.718L-1159.02 154.03C-1163.43 135.209 -1151.74 116.38 -1132.92 111.975L-2.28003 -152.643C46.1529 -164.894 86.1301 -185.465 112.592 -212.456C135.917 -236.247 156.857 -272.789 156.857 -338.752C156.857 -357.656 146.192 -399.552 119.722 -435.476C95.2863 -468.638 71.298 -479.322 49.3624 -479.322Z" stroke="url(#paint0_linear_61_4583)" stroke-opacity="0.45"/>
<path fillRule="evenodd" clipRule="evenodd" d="M156.619 -105.852C163.597 -123.879 183.861 -132.945 201.175 -124.35C327.645 -61.5738 504.16 103.408 504.16 372.408C504.16 683.962 248.738 852 32.8359 852L-717.704 852C-737.034 852 -752.704 836.33 -752.704 817L-752.704 539.581C-752.704 523.859 -742.22 510.066 -727.071 505.858L-499.393 442.614C-477.091 436.419 -455.025 453.191 -455.025 476.337L-455.025 519.322C-455.025 538.652 -439.355 554.322 -420.025 554.322L32.8359 554.322C114.612 554.322 206.481 490.833 206.481 372.408C206.481 261.29 141.152 188.668 92.4762 155.776C76.46 144.954 67.451 124.499 74.429 106.473L156.619 -105.852Z" stroke="url(#paint1_linear_61_4583)" stroke-opacity="0.64"/>
<defs>
<linearGradient id="paint0_linear_61_4583" x1="-355.988" y1="-951.977" x2="-592.47" y2="853.822" gradientUnits="userSpaceOnUse">
<stop stop-color="#CA66EE" stop-opacity="0"/>
<stop stop-color="#F785FF"/>
<stop offset="0.523496" stop-color="#AE54E4" stop-opacity="0.46"/>
<stop offset="1" stop-color="#8C3DD8" stop-opacity="0"/>
</linearGradient>
<linearGradient id="paint1_linear_61_4583" x1="396.519" y1="-202.689" x2="-283.484" y2="738.649" gradientUnits="userSpaceOnUse">
<stop stop-color="#CA66EE" stop-opacity="0"/>
<stop offset="0.377172" stop-color="#AE54E4" stop-opacity="0.4"/>
<stop offset="0.666667" stop-color="#F785FF" stop-opacity="0.96"/>
<stop offset="1" stop-color="#8C3DD8" stop-opacity="0"/>
</linearGradient>
</defs>
</svg>
