<svg width="15" height="14" viewBox="0 0 15 14" fill="none" xmlns="http://www.w3.org/2000/svg">
<path fillRule="evenodd" clipRule="evenodd" d="M1.08301 6.99992C1.08301 10.5583 3.94134 13.4166 7.49967 13.4166C11.058 13.4166 13.9163 10.5583 13.9163 6.99992C13.9163 3.44159 11.058 0.583252 7.49967 0.583252C3.94134 0.583252 1.08301 3.44159 1.08301 6.99992ZM2.24967 6.99992C2.24967 4.08325 4.583 1.74992 7.49967 1.74992C10.4163 1.74992 12.7497 4.08325 12.7497 6.99992C12.7497 9.91659 10.4163 12.2499 7.49967 12.2499C4.583 12.2499 2.24967 9.91659 2.24967 6.99992ZM8.08301 6.99992V4.66659C8.08301 4.31659 7.84968 4.08325 7.49968 4.08325C7.14968 4.08325 6.91634 4.31659 6.91634 4.66659V6.99992C6.91634 7.34992 7.14968 7.58325 7.49968 7.58325C7.84968 7.58325 8.08301 7.34992 8.08301 6.99992ZM8.02469 9.56658C8.02469 9.62492 7.96635 9.68325 7.90802 9.74158C7.79135 9.85825 7.67469 9.91658 7.44135 9.91658C7.26635 9.91658 7.14969 9.85825 7.03302 9.74158C6.91635 9.62492 6.85802 9.50825 6.85802 9.33325C6.85802 9.26491 6.87804 9.21658 6.89462 9.17655C6.90634 9.14824 6.91635 9.12408 6.91635 9.09991C6.91635 9.04158 6.97469 8.98325 7.03302 8.92491C7.20802 8.74991 7.44135 8.69158 7.67469 8.80825C7.70385 8.80825 7.71844 8.82283 7.73302 8.83741C7.7476 8.852 7.76219 8.86658 7.79135 8.86658C7.84969 8.86658 7.90802 8.92491 7.90802 8.92491C7.93719 8.95408 7.95177 8.98325 7.96635 9.01241C7.98094 9.04158 7.99552 9.07075 8.02469 9.09991C8.08302 9.15825 8.08302 9.27491 8.08302 9.33325C8.08302 9.36242 8.06844 9.40617 8.05385 9.44991C8.03927 9.49366 8.02469 9.53741 8.02469 9.56658Z" fill="#84388A"/>
<mask id="mask0_2051_4646" style="mask-type:luminance" maskUnits="userSpaceOnUse" x="1" y="0" width="13" height="14">
<path fillRule="evenodd" clipRule="evenodd" d="M1.08301 6.99992C1.08301 10.5583 3.94134 13.4166 7.49967 13.4166C11.058 13.4166 13.9163 10.5583 13.9163 6.99992C13.9163 3.44159 11.058 0.583252 7.49967 0.583252C3.94134 0.583252 1.08301 3.44159 1.08301 6.99992ZM2.24967 6.99992C2.24967 4.08325 4.583 1.74992 7.49967 1.74992C10.4163 1.74992 12.7497 4.08325 12.7497 6.99992C12.7497 9.91659 10.4163 12.2499 7.49967 12.2499C4.583 12.2499 2.24967 9.91659 2.24967 6.99992ZM8.08301 6.99992V4.66659C8.08301 4.31659 7.84968 4.08325 7.49968 4.08325C7.14968 4.08325 6.91634 4.31659 6.91634 4.66659V6.99992C6.91634 7.34992 7.14968 7.58325 7.49968 7.58325C7.84968 7.58325 8.08301 7.34992 8.08301 6.99992ZM8.02469 9.56658C8.02469 9.62492 7.96635 9.68325 7.90802 9.74158C7.79135 9.85825 7.67469 9.91658 7.44135 9.91658C7.26635 9.91658 7.14969 9.85825 7.03302 9.74158C6.91635 9.62492 6.85802 9.50825 6.85802 9.33325C6.85802 9.26491 6.87804 9.21658 6.89462 9.17655C6.90634 9.14824 6.91635 9.12408 6.91635 9.09991C6.91635 9.04158 6.97469 8.98325 7.03302 8.92491C7.20802 8.74991 7.44135 8.69158 7.67469 8.80825C7.70385 8.80825 7.71844 8.82283 7.73302 8.83741C7.7476 8.852 7.76219 8.86658 7.79135 8.86658C7.84969 8.86658 7.90802 8.92491 7.90802 8.92491C7.93719 8.95408 7.95177 8.98325 7.96635 9.01241C7.98094 9.04158 7.99552 9.07075 8.02469 9.09991C8.08302 9.15825 8.08302 9.27491 8.08302 9.33325C8.08302 9.36242 8.06844 9.40617 8.05385 9.44991C8.03927 9.49366 8.02469 9.53741 8.02469 9.56658Z" fill="white"/>
</mask>
<g mask="url(#mask0_2051_4646)">
<rect x="0.5" width="14" height="14" fill="#84388A"/>
</g>
</svg>
