<svg width="20" height="19" viewBox="0 0 20 19" fill="none" xmlns="http://www.w3.org/2000/svg">
<path fillRule="evenodd" clipRule="evenodd" d="M9.60686 3.39838C9.29769 3.70754 9.29769 4.2088 9.60686 4.51796L13.7971 8.70817H4.62498C4.18775 8.70817 3.83331 9.06261 3.83331 9.49984C3.83331 9.93706 4.18775 10.2915 4.62498 10.2915H13.7971L9.60686 14.4817C9.29769 14.7909 9.29769 15.2921 9.60686 15.6013C9.91602 15.9105 10.4173 15.9105 10.7264 15.6013L16.2681 10.0596C16.4177 9.91006 16.4949 9.71553 16.4997 9.51955C16.5 9.50726 16.5001 9.49496 16.4998 9.48267C16.4977 9.38243 16.4769 9.28677 16.4408 9.19903C16.4022 9.10482 16.3446 9.01655 16.2681 8.94004L10.7264 3.39838C10.4173 3.08921 9.91602 3.08921 9.60686 3.39838Z" fill="#4A2072"/>
<mask id="mask0_2668_575" style="mask-type:luminance" maskUnits="userSpaceOnUse" x="3" y="3" width="14" height="13">
<path fillRule="evenodd" clipRule="evenodd" d="M9.60686 3.39838C9.29769 3.70754 9.29769 4.2088 9.60686 4.51796L13.7971 8.70817H4.62498C4.18775 8.70817 3.83331 9.06261 3.83331 9.49984C3.83331 9.93706 4.18775 10.2915 4.62498 10.2915H13.7971L9.60686 14.4817C9.29769 14.7909 9.29769 15.2921 9.60686 15.6013C9.91602 15.9105 10.4173 15.9105 10.7264 15.6013L16.2681 10.0596C16.4177 9.91006 16.4949 9.71553 16.4997 9.51955C16.5 9.50726 16.5001 9.49496 16.4998 9.48267C16.4977 9.38243 16.4769 9.28677 16.4408 9.19903C16.4022 9.10482 16.3446 9.01655 16.2681 8.94004L10.7264 3.39838C10.4173 3.08921 9.91602 3.08921 9.60686 3.39838Z" fill="white"/>
</mask>
<g mask="url(#mask0_2668_575)">
<rect x="0.666626" width="19" height="19" fill="#4A2072"/>
</g>
</svg>
