<svg width="28" height="27" viewBox="0 0 28 27" fill="none" xmlns="http://www.w3.org/2000/svg">
<path fillRule="evenodd" clipRule="evenodd" d="M20.3133 4.934H3.18135V0H20.3133C22.6908 0 24.4176 1.33053 25.4516 2.7339C26.452 4.09151 27.029 5.79556 27.029 7.26394C27.029 9.43315 26.3219 11.1946 25.1564 12.5189C26.6035 13.9684 27.8479 16.1429 27.8479 19.0507C27.8479 24.2146 23.6143 26.9999 20.0357 26.9999H7.01544V21.3806L11.9494 20.01V22.0659H20.0357C21.3911 22.0659 22.9139 21.0135 22.9139 19.0507C22.9139 16.7729 21.2577 15.471 20.5157 15.1838L20.5223 15.1667L1.27654 19.6711L0.152161 14.8669L7.01544 13.2606V7.4021H11.9494V12.1058L19.4573 10.3487C20.2601 10.1456 20.9227 9.80465 21.3613 9.35728C21.7479 8.96294 22.095 8.35726 22.095 7.26394C22.095 6.9506 21.9182 6.25618 21.4795 5.66074C21.0745 5.11108 20.6769 4.934 20.3133 4.934Z" fill="#232323"/>
</svg>
