<svg width="15" height="14" viewBox="0 0 15 14" fill="none" xmlns="http://www.w3.org/2000/svg">
<path fillRule="evenodd" clipRule="evenodd" d="M7.33681 9.85837C7.27848 9.85837 7.22015 9.80004 7.16181 9.74171L4.82848 7.40837C4.59515 7.17504 4.59515 6.82504 4.82848 6.59171C5.06181 6.35837 5.41181 6.35837 5.64515 6.59171L6.98681 7.93337V1.16671C6.98681 0.816707 7.22015 0.583374 7.57015 0.583374C7.92015 0.583374 8.15348 0.816707 8.15348 1.16671V7.93337L9.49515 6.59171C9.72848 6.35837 10.0785 6.35837 10.3118 6.59171C10.5451 6.82504 10.5451 7.17504 10.3118 7.40837L7.97848 9.74171C7.94931 9.77087 7.92015 9.78546 7.89098 9.80004C7.86181 9.81462 7.83265 9.82921 7.80348 9.85837C7.74515 9.91671 7.62848 9.91671 7.57015 9.91671C7.51181 9.91671 7.39515 9.91671 7.33681 9.85837ZM13.4035 11.6667V9.91671C13.4035 9.56671 13.1701 9.33337 12.8201 9.33337C12.4701 9.33337 12.2368 9.56671 12.2368 9.91671V11.6667C12.2368 12.0167 12.0035 12.25 11.6535 12.25H3.48682C3.13682 12.25 2.90348 12.0167 2.90348 11.6667V9.91671C2.90348 9.56671 2.67015 9.33337 2.32015 9.33337C1.97015 9.33337 1.73682 9.56671 1.73682 9.91671V11.6667C1.73682 12.6584 2.49515 13.4167 3.48682 13.4167H11.6535C12.6451 13.4167 13.4035 12.6584 13.4035 11.6667Z" fill="#01565B"/>
<mask id="mask0_4215_1157" style="mask-type:luminance" maskUnits="userSpaceOnUse" x="1" y="0" width="13" height="14">
<path fillRule="evenodd" clipRule="evenodd" d="M7.33681 9.85837C7.27848 9.85837 7.22015 9.80004 7.16181 9.74171L4.82848 7.40837C4.59515 7.17504 4.59515 6.82504 4.82848 6.59171C5.06181 6.35837 5.41181 6.35837 5.64515 6.59171L6.98681 7.93337V1.16671C6.98681 0.816707 7.22015 0.583374 7.57015 0.583374C7.92015 0.583374 8.15348 0.816707 8.15348 1.16671V7.93337L9.49515 6.59171C9.72848 6.35837 10.0785 6.35837 10.3118 6.59171C10.5451 6.82504 10.5451 7.17504 10.3118 7.40837L7.97848 9.74171C7.94931 9.77087 7.92015 9.78546 7.89098 9.80004C7.86181 9.81462 7.83265 9.82921 7.80348 9.85837C7.74515 9.91671 7.62848 9.91671 7.57015 9.91671C7.51181 9.91671 7.39515 9.91671 7.33681 9.85837ZM13.4035 11.6667V9.91671C13.4035 9.56671 13.1701 9.33337 12.8201 9.33337C12.4701 9.33337 12.2368 9.56671 12.2368 9.91671V11.6667C12.2368 12.0167 12.0035 12.25 11.6535 12.25H3.48682C3.13682 12.25 2.90348 12.0167 2.90348 11.6667V9.91671C2.90348 9.56671 2.67015 9.33337 2.32015 9.33337C1.97015 9.33337 1.73682 9.56671 1.73682 9.91671V11.6667C1.73682 12.6584 2.49515 13.4167 3.48682 13.4167H11.6535C12.6451 13.4167 13.4035 12.6584 13.4035 11.6667Z" fill="white"/>
</mask>
<g mask="url(#mask0_4215_1157)">
<rect x="0.570312" width="14" height="14" fill="#01565B"/>
</g>
</svg>
