<svg width="14" height="14" viewBox="0 0 14 14" fill="none" xmlns="http://www.w3.org/2000/svg">
<path d="M10.9077 10.0917C11.141 10.3251 11.141 10.6751 10.9077 10.9084C10.791 11.0251 10.6744 11.0834 10.4994 11.0834C10.3244 11.0834 10.2077 11.0251 10.091 10.9084L6.99935 7.81675L3.90768 10.9084C3.79102 11.0251 3.67435 11.0834 3.49935 11.0834C3.32435 11.0834 3.20768 11.0251 3.09102 10.9084C2.85768 10.6751 2.85768 10.3251 3.09102 10.0917L6.18268 7.00008L3.09102 3.90841C2.85768 3.67508 2.85768 3.32508 3.09102 3.09175C3.32435 2.85841 3.67435 2.85841 3.90768 3.09175L6.99935 6.18342L10.091 3.09175C10.3244 2.85841 10.6744 2.85841 10.9077 3.09175C11.141 3.32508 11.141 3.67508 10.9077 3.90841L7.81602 7.00008L10.9077 10.0917Z" fill="#D94B4B"/>
<mask id="mask0_2672_893" style="mask-type:luminance" maskUnits="userSpaceOnUse" x="2" y="2" width="10" height="10">
<path d="M10.9077 10.0917C11.141 10.3251 11.141 10.6751 10.9077 10.9084C10.791 11.0251 10.6744 11.0834 10.4994 11.0834C10.3244 11.0834 10.2077 11.0251 10.091 10.9084L6.99935 7.81675L3.90768 10.9084C3.79102 11.0251 3.67435 11.0834 3.49935 11.0834C3.32435 11.0834 3.20768 11.0251 3.09102 10.9084C2.85768 10.6751 2.85768 10.3251 3.09102 10.0917L6.18268 7.00008L3.09102 3.90841C2.85768 3.67508 2.85768 3.32508 3.09102 3.09175C3.32435 2.85841 3.67435 2.85841 3.90768 3.09175L6.99935 6.18342L10.091 3.09175C10.3244 2.85841 10.6744 2.85841 10.9077 3.09175C11.141 3.32508 11.141 3.67508 10.9077 3.90841L7.81602 7.00008L10.9077 10.0917Z" fill="white"/>
</mask>
<g mask="url(#mask0_2672_893)">
<rect width="14" height="14" fill="#D94B4B"/>
</g>
</svg>
