<svg width="14" height="14" viewBox="0 0 14 14" fill="none" xmlns="http://www.w3.org/2000/svg">
<path fillRule="evenodd" clipRule="evenodd" d="M13.4173 6.99992C13.4173 10.5437 10.5445 13.4166 7.00065 13.4166C3.45682 13.4166 0.583984 10.5437 0.583984 6.99992C0.583984 3.45609 3.45682 0.583252 7.00065 0.583252C10.5445 0.583252 13.4173 3.45609 13.4173 6.99992ZM8.88268 9.43472C9.11602 9.20139 9.11602 8.85139 8.88268 8.61805L7.30768 7.04305V3.77638C7.30768 3.42638 7.07435 3.19305 6.72435 3.19305C6.37435 3.19305 6.14102 3.42638 6.14102 3.77638V7.27639C6.14102 7.45139 6.19935 7.56805 6.31602 7.68472L8.06602 9.43472C8.18268 9.55139 8.29935 9.60972 8.47435 9.60972C8.64935 9.60972 8.76602 9.55139 8.88268 9.43472Z" fill="#272727"/>
<mask id="mask0_2672_901" style="mask-type:luminance" maskUnits="userSpaceOnUse" x="0" y="0" width="14" height="14">
<path fillRule="evenodd" clipRule="evenodd" d="M13.4173 6.99992C13.4173 10.5437 10.5445 13.4166 7.00065 13.4166C3.45682 13.4166 0.583984 10.5437 0.583984 6.99992C0.583984 3.45609 3.45682 0.583252 7.00065 0.583252C10.5445 0.583252 13.4173 3.45609 13.4173 6.99992ZM8.88268 9.43472C9.11602 9.20139 9.11602 8.85139 8.88268 8.61805L7.30768 7.04305V3.77638C7.30768 3.42638 7.07435 3.19305 6.72435 3.19305C6.37435 3.19305 6.14102 3.42638 6.14102 3.77638V7.27639C6.14102 7.45139 6.19935 7.56805 6.31602 7.68472L8.06602 9.43472C8.18268 9.55139 8.29935 9.60972 8.47435 9.60972C8.64935 9.60972 8.76602 9.55139 8.88268 9.43472Z" fill="white"/>
</mask>
<g mask="url(#mask0_2672_901)">
<rect width="14" height="14" fill="#84388A"/>
</g>
</svg>
