<svg width="70" height="70" viewBox="0 0 70 70" fill="none" xmlns="http://www.w3.org/2000/svg">
<path d="M29.7934 2.50737C33.0836 0.922869 36.9164 0.922871 40.2066 2.50737L57.1575 10.6705C60.4477 12.255 62.8374 15.2515 63.65 18.8119L67.8366 37.1542C68.6492 40.7146 67.7963 44.4512 65.5194 47.3064L53.789 62.0158C51.5121 64.871 48.0589 66.5339 44.407 66.5339H25.593C21.9411 66.5339 18.4879 64.871 16.211 62.0158L4.4806 47.3064C2.20368 44.4512 1.35082 40.7146 2.16345 37.1542L6.34997 18.8119C7.1626 15.2515 9.55226 12.255 12.8425 10.6705L29.7934 2.50737Z" fill="url(#paint0_radial_4105_2251)"/>
<path fillRule="evenodd" clipRule="evenodd" d="M44.6176 24.9204H23.4527V18.6666H44.6176C47.5548 18.6666 49.6881 20.353 50.9656 22.1318C52.2014 23.8525 52.9143 26.0124 52.9143 27.8736C52.9143 30.8307 51.9038 33.1899 50.265 34.905C48.694 36.549 46.7264 37.4177 45.0182 37.8558L44.9959 37.8615L21.0995 43.5996L19.7104 37.5103L28.1936 35.4733V28.0473H34.2891V34.0096L43.5601 31.7835C44.5519 31.5261 45.3705 31.0939 45.9123 30.5269C46.39 30.0271 46.8188 29.2594 46.8188 27.8736C46.8188 27.4764 46.6004 26.5962 46.0583 25.8415C45.558 25.1448 45.0668 24.9204 44.6176 24.9204ZM34.2891 46.6352H34.2918V52.889H28.1936V45.7667L34.2891 44.0295V46.6352Z" fill="white"/>
<defs>
<radialGradient id="paint0_radial_4105_2251" cx="0" cy="0" r="1" gradientUnits="userSpaceOnUse" gradientTransform="translate(38.4885 11.7181) rotate(92.3505) scale(64.0681 59.626)">
<stop stop-color="#30C288"/>
<stop offset="0.580491" stop-color="#3EBA94"/>
<stop offset="1" stop-color="#45BD96"/>
</radialGradient>
</defs>
</svg>
