<svg width="60" height="35" viewBox="0 0 60 35" fill="none" xmlns="http://www.w3.org/2000/svg">
<path d="M47.3421 15.4035V26.9091H42.7142V7.27277H47.1375V10.6094H47.3676C47.8193 9.50999 48.5395 8.63641 49.5282 7.98868C50.5253 7.34095 51.7568 7.01709 53.2228 7.01709C54.5779 7.01709 55.7583 7.30686 56.764 7.88641C57.7782 8.46595 58.5622 9.30544 59.1162 10.4049C59.6787 11.5043 59.9557 12.8381 59.9472 14.4063V26.9091H55.3193V15.1222C55.3193 13.8097 54.9784 12.7827 54.2966 12.0412C53.6233 11.2998 52.6901 10.929 51.4969 10.929C50.6872 10.929 49.9671 11.108 49.3364 11.466C48.7142 11.8154 48.2242 12.3225 47.8662 12.9873C47.5168 13.652 47.3421 14.4574 47.3421 15.4035Z" fill="#4A2072"/>
<path d="M24.8484 34.2727C24.2178 34.2727 23.6339 34.2216 23.097 34.1193C22.5686 34.0255 22.1467 33.9148 21.8314 33.7869L22.9053 30.1818C23.5785 30.3778 24.1794 30.4716 24.7078 30.463C25.2362 30.4545 25.7007 30.2883 26.1013 29.9645C26.5104 29.6491 26.8555 29.1207 27.1368 28.3792L27.5331 27.3182L20.4124 7.27271H25.3214L29.847 22.1023H30.0516L34.5899 7.27271H39.5118L31.6496 29.2869C31.2831 30.3267 30.7973 31.2173 30.1922 31.9588C29.5871 32.7088 28.8456 33.2798 27.9678 33.6719C27.0984 34.0724 26.0587 34.2727 24.8484 34.2727Z" fill="#4A2072"/>
<path d="M0.168823 26.9091V0.727295H4.79666V10.5199H4.98843C5.22706 10.0426 5.56371 9.53553 5.99837 8.9986C6.43303 8.45315 7.0211 7.98866 7.76257 7.60514C8.50405 7.21309 9.45007 7.01707 10.6006 7.01707C12.1177 7.01707 13.4856 7.40485 14.7043 8.18042C15.9316 8.94746 16.9032 10.0852 17.6191 11.5938C18.3435 13.0938 18.7058 14.9347 18.7058 17.1165C18.7058 19.2728 18.3521 21.1051 17.6447 22.6137C16.9373 24.1222 15.9742 25.2728 14.7555 26.0654C13.5367 26.858 12.156 27.2543 10.6134 27.2543C9.48843 27.2543 8.55519 27.0668 7.81371 26.6918C7.07223 26.3168 6.47564 25.8651 6.02394 25.3367C5.58076 24.7997 5.23558 24.2926 4.98843 23.8154H4.71996V26.9091H0.168823ZM4.70718 17.0909C4.70718 18.3608 4.88615 19.473 5.24411 20.4276C5.61059 21.3821 6.13473 22.1279 6.81655 22.6648C7.50689 23.1932 8.34212 23.4574 9.32223 23.4574C10.345 23.4574 11.2015 23.1847 11.8918 22.6392C12.5822 22.0853 13.1021 21.331 13.4515 20.3764C13.8094 19.4134 13.9884 18.3182 13.9884 17.0909C13.9884 15.8722 13.8137 14.7898 13.4643 13.8438C13.1148 12.8977 12.595 12.1563 11.9046 11.6193C11.2143 11.0824 10.3535 10.8139 9.32223 10.8139C8.3336 10.8139 7.49411 11.0739 6.80377 11.5938C6.11343 12.1137 5.58928 12.8424 5.23132 13.7799C4.88189 14.7174 4.70718 15.821 4.70718 17.0909Z" fill="#4A2072"/>
</svg>
