<svg width="20" height="19" viewBox="0 0 20 19" fill="none" xmlns="http://www.w3.org/2000/svg">
<path fillRule="evenodd" clipRule="evenodd" d="M1.24963 8.53517C1.28905 8.555 1.32847 8.57482 1.36788 8.61447C1.44672 8.69377 1.6044 8.69377 1.68324 8.69377H6.41353C6.88656 8.69377 7.20191 8.37658 7.20191 7.90078C7.20191 7.42499 6.88656 7.1078 6.41353 7.1078H3.65419L5.9405 5.04604C6.5712 4.33236 7.43842 3.85657 8.30564 3.53938C9.88241 2.98429 11.6168 3.06359 13.1148 3.77727C14.6127 4.57025 15.7953 5.83903 16.3471 7.42499C16.5048 7.82149 16.9778 8.05938 17.372 7.90078C17.7662 7.74219 18.0027 7.2664 17.8451 6.86991C17.1355 4.88745 15.7164 3.30148 13.8243 2.3499C11.9322 1.47762 9.80357 1.31902 7.83262 2.03271C6.72888 2.4292 5.70398 3.06359 4.9156 3.85657L2.55046 6.07692V3.14288C2.55046 2.66709 2.2351 2.3499 1.76208 2.3499C1.28905 2.3499 0.973694 2.66709 0.973694 3.14288V7.98008V8.05938V8.21798C0.973694 8.25763 0.993403 8.27745 1.01311 8.29728C1.03282 8.3171 1.05253 8.33693 1.05253 8.37657C1.13137 8.37657 1.13137 8.45587 1.13137 8.45587C1.17079 8.49552 1.21021 8.51535 1.24963 8.53517ZM19.816 10.7555V10.9141C19.816 10.9417 19.816 10.9597 19.8226 10.9748C19.8351 11.003 19.8708 11.021 19.9737 11.0727V15.8306C19.9737 16.3064 19.6583 16.6236 19.1853 16.6236C18.7123 16.6236 18.3969 16.3064 18.3969 15.8306V12.8966L16.0318 15.1169C14.5339 16.6236 12.5629 17.4166 10.5131 17.4166C8.46331 17.4166 6.49236 16.7029 4.9156 15.1169C4.04838 14.324 3.41767 13.2931 3.02348 12.1829C2.8658 11.7864 3.10232 11.3106 3.49651 11.152C3.8907 10.9934 4.36373 11.2313 4.52141 11.6278C4.83676 12.5001 5.38863 13.3724 6.01933 14.0068C8.46331 16.465 12.4841 16.465 14.928 14.0068L17.1355 11.8657H14.3762C13.9031 11.8657 13.5878 11.5485 13.5878 11.0727C13.5878 10.5969 13.9031 10.2797 14.3762 10.2797H19.1065H19.2641H19.4218L19.5007 10.359L19.6583 10.5176C19.7372 10.5176 19.7372 10.5969 19.7372 10.5969C19.7372 10.6366 19.7569 10.6564 19.7766 10.6762C19.7963 10.6961 19.816 10.7159 19.816 10.7555Z" fill="#272727"/>
<mask id="mask0_2644_768" style="mask-type:luminance" maskUnits="userSpaceOnUse" x="0" y="1" width="20" height="17">
<path fillRule="evenodd" clipRule="evenodd" d="M1.24963 8.53517C1.28905 8.555 1.32847 8.57482 1.36788 8.61447C1.44672 8.69377 1.6044 8.69377 1.68324 8.69377H6.41353C6.88656 8.69377 7.20191 8.37658 7.20191 7.90078C7.20191 7.42499 6.88656 7.1078 6.41353 7.1078H3.65419L5.9405 5.04604C6.5712 4.33236 7.43842 3.85657 8.30564 3.53938C9.88241 2.98429 11.6168 3.06359 13.1148 3.77727C14.6127 4.57025 15.7953 5.83903 16.3471 7.42499C16.5048 7.82149 16.9778 8.05938 17.372 7.90078C17.7662 7.74219 18.0027 7.2664 17.8451 6.86991C17.1355 4.88745 15.7164 3.30148 13.8243 2.3499C11.9322 1.47762 9.80357 1.31902 7.83262 2.03271C6.72888 2.4292 5.70398 3.06359 4.9156 3.85657L2.55046 6.07692V3.14288C2.55046 2.66709 2.2351 2.3499 1.76208 2.3499C1.28905 2.3499 0.973694 2.66709 0.973694 3.14288V7.98008V8.05938V8.21798C0.973694 8.25763 0.993403 8.27745 1.01311 8.29728C1.03282 8.3171 1.05253 8.33693 1.05253 8.37657C1.13137 8.37657 1.13137 8.45587 1.13137 8.45587C1.17079 8.49552 1.21021 8.51535 1.24963 8.53517ZM19.816 10.7555V10.9141C19.816 10.9417 19.816 10.9597 19.8226 10.9748C19.8351 11.003 19.8708 11.021 19.9737 11.0727V15.8306C19.9737 16.3064 19.6583 16.6236 19.1853 16.6236C18.7123 16.6236 18.3969 16.3064 18.3969 15.8306V12.8966L16.0318 15.1169C14.5339 16.6236 12.5629 17.4166 10.5131 17.4166C8.46331 17.4166 6.49236 16.7029 4.9156 15.1169C4.04838 14.324 3.41767 13.2931 3.02348 12.1829C2.8658 11.7864 3.10232 11.3106 3.49651 11.152C3.8907 10.9934 4.36373 11.2313 4.52141 11.6278C4.83676 12.5001 5.38863 13.3724 6.01933 14.0068C8.46331 16.465 12.4841 16.465 14.928 14.0068L17.1355 11.8657H14.3762C13.9031 11.8657 13.5878 11.5485 13.5878 11.0727C13.5878 10.5969 13.9031 10.2797 14.3762 10.2797H19.1065H19.2641H19.4218L19.5007 10.359L19.6583 10.5176C19.7372 10.5176 19.7372 10.5969 19.7372 10.5969C19.7372 10.6366 19.7569 10.6564 19.7766 10.6762C19.7963 10.6961 19.816 10.7159 19.816 10.7555Z" fill="white"/>
</mask>
<g mask="url(#mask0_2644_768)">
<rect x="0.973694" width="19" height="19" fill="#272727"/>
</g>
</svg>
