<svg width="80" height="80" viewBox="0 0 80 80" fill="none" xmlns="http://www.w3.org/2000/svg">
<path fillRule="evenodd" clipRule="evenodd" d="M8.86325 15.1866H58.9904C60.0542 15.1866 61.2176 15.7047 62.4026 17.3131C63.6864 19.0553 64.2036 21.0871 64.2036 22.0039C64.2036 25.2029 63.1881 26.9751 62.0568 28.1289C60.7735 29.4379 58.8347 30.4356 56.4859 31.0297L34.5287 36.1686V22.4048H20.092V39.5474L0 44.2498L3.28988 58.3066L59.8863 45.0606L59.9391 45.0474C63.9848 44.036 68.645 42.0307 72.3656 38.2356C76.2471 34.2765 78.6402 28.8303 78.6402 22.0039C78.6402 17.7075 76.9519 12.7215 74.0249 8.74926C70.9993 4.64307 65.9469 0.75 58.9904 0.75H8.86325V15.1866ZM34.535 65.3133H34.5286V59.2981L20.092 63.3082V79.7499H34.535V65.3133ZM71.2495 51.5001L55.9995 55.3751L63.4995 79.7501H79.8745L71.2495 51.5001Z" fill="#30C288"/>
</svg>
