<svg width="13" height="14" viewBox="0 0 13 14" fill="none" xmlns="http://www.w3.org/2000/svg">
<path fillRule="evenodd" clipRule="evenodd" d="M9.70724 2.62564H1.4585V0.25H9.70724C10.852 0.25 11.6834 0.890629 12.1813 1.56633C12.6629 2.22 12.9407 3.04047 12.9407 3.74747C12.9407 4.8708 12.5469 5.767 11.9082 6.4185C11.296 7.043 10.5291 7.37299 9.86335 7.53942L9.85467 7.54159L0.541371 9.7213L0 7.40817L3.30672 6.63426V3.81362H5.68236V6.07826L9.29511 5.23272C9.68163 5.13495 10.0007 4.97078 10.2118 4.75538C10.398 4.56551 10.5651 4.27389 10.5651 3.74747C10.5651 3.5966 10.48 3.26225 10.2687 2.97556C10.0737 2.7109 9.8823 2.62564 9.70724 2.62564ZM5.68236 10.8743H5.68341V13.2499H3.30672V10.5443L5.68236 9.88444V10.8743Z" fill="#01565B"/>
</svg>
