<svg width="20" height="19" viewBox="0 0 20 19" fill="none" xmlns="http://www.w3.org/2000/svg">
<path d="M19.333 4.75016V9.50016C19.333 9.97516 19.0163 10.2918 18.5413 10.2918C18.0663 10.2918 17.7497 9.97516 17.7497 9.50016V6.65016L11.5747 12.8252C11.258 13.1418 10.783 13.1418 10.4663 12.8252L7.06217 9.421L1.67884 14.8043C1.52051 14.9627 1.36217 15.0418 1.12467 15.0418C0.887174 15.0418 0.728841 14.9627 0.570508 14.8043C0.253841 14.4877 0.253841 14.0127 0.570508 13.696L6.50801 7.7585C6.82467 7.44183 7.29967 7.44183 7.61634 7.7585L11.0205 11.1627L16.6413 5.54183H13.7913C13.3163 5.54183 12.9997 5.22516 12.9997 4.75016C12.9997 4.27516 13.3163 3.9585 13.7913 3.9585H18.5413C18.6205 3.9585 18.7788 3.9585 18.858 4.03766C19.0163 4.11683 19.1747 4.27516 19.2538 4.4335C19.333 4.51266 19.333 4.671 19.333 4.75016Z" fill="#272727"/>
<mask id="mask0_2489_9660" style="mask-type:luminance" maskUnits="userSpaceOnUse" x="0" y="3" width="20" height="13">
<path d="M19.333 4.75016V9.50016C19.333 9.97516 19.0163 10.2918 18.5413 10.2918C18.0663 10.2918 17.7497 9.97516 17.7497 9.50016V6.65016L11.5747 12.8252C11.258 13.1418 10.783 13.1418 10.4663 12.8252L7.06217 9.421L1.67884 14.8043C1.52051 14.9627 1.36217 15.0418 1.12467 15.0418C0.887174 15.0418 0.728841 14.9627 0.570508 14.8043C0.253841 14.4877 0.253841 14.0127 0.570508 13.696L6.50801 7.7585C6.82467 7.44183 7.29967 7.44183 7.61634 7.7585L11.0205 11.1627L16.6413 5.54183H13.7913C13.3163 5.54183 12.9997 5.22516 12.9997 4.75016C12.9997 4.27516 13.3163 3.9585 13.7913 3.9585H18.5413C18.6205 3.9585 18.7788 3.9585 18.858 4.03766C19.0163 4.11683 19.1747 4.27516 19.2538 4.4335C19.333 4.51266 19.333 4.671 19.333 4.75016Z" fill="white"/>
</mask>
<g mask="url(#mask0_2489_9660)">
<rect x="0.333008" width="19" height="19" fill="#272727"/>
</g>
</svg>
