<svg width="20" height="19" viewBox="0 0 20 19" fill="none" xmlns="http://www.w3.org/2000/svg">
<path fillRule="evenodd" clipRule="evenodd" d="M13.9119 2.29563H5.27557C3.7154 2.29563 2.39679 3.32989 1.96797 4.75018H8.9574C9.50968 4.75018 9.9574 5.1979 9.9574 5.75018C9.9574 6.30247 9.50968 6.75018 8.9574 6.75018H1.82102V13.2502C1.82102 15.1581 3.36768 16.7047 5.27557 16.7047H13.9119C15.8198 16.7047 17.3665 15.1581 17.3665 13.2502V12.5229H14.3438C12.6744 12.5229 11.321 11.1696 11.321 9.50017C11.321 7.83077 12.6744 6.47745 14.3438 6.47745H17.3665V5.75018C17.3665 3.84228 15.8198 2.29563 13.9119 2.29563ZM17.3665 8.20472H16.5029V9.06836C16.5029 9.54533 16.1162 9.932 15.6392 9.932C15.1623 9.932 14.7756 9.54533 14.7756 9.06836V8.20472H14.3438C13.6283 8.20472 13.0483 8.78472 13.0483 9.50017C13.0483 10.2156 13.6283 10.7956 14.3438 10.7956H17.3665V8.20472ZM5.27557 0.568359C2.41373 0.568359 0.09375 2.88834 0.09375 5.75018V13.2502C0.09375 16.112 2.41373 18.432 5.27557 18.432H13.9119C16.7738 18.432 19.0938 16.112 19.0938 13.2502V5.75018C19.0938 2.88834 16.7738 0.568359 13.9119 0.568359H5.27557Z" fill="#232323"/>
</svg>
