<svg width="435" height="405" viewBox="0 0 435 405" fill="none" xmlns="http://www.w3.org/2000/svg">
<g filter="url(#filter0_i_4150_10246)">
<path fillRule="evenodd" clipRule="evenodd" d="M102.474 252.408C139.948 320.869 199.107 364.596 245.418 362.163C255.173 362.531 266.592 361.98 275.44 359.013C278.176 358.096 280.915 357.186 283.596 356.296L283.596 356.296C299.178 351.122 312.809 346.596 312.696 344.875C312.691 344.797 312.721 344.587 312.783 344.256C359.537 319.635 361.246 233.991 316.34 151.952C272.422 71.7197 200.056 24.4135 152.083 43.4368L151.639 43.1665L118.045 58.8554C114.864 59.8043 111.774 61.0179 108.788 62.5049C60.9371 86.3371 58.1101 171.359 102.474 252.408ZM289.852 349.576C337.603 325.794 340.349 240.812 295.985 159.763C251.621 78.7152 176.947 32.2921 129.196 56.0745C81.4447 79.8569 78.6988 164.839 123.063 245.887C167.427 326.935 242.101 373.358 289.852 349.576Z" fill="url(#paint0_linear_4150_10246)" fill-opacity="0.58"/>
</g>
<path d="M193.78 145.7C196.623 143.544 200.278 142.765 203.754 143.574L243.526 152.838C247.1 153.67 250.097 156.093 251.661 159.413L268.504 195.187C270.092 198.56 270.022 202.48 268.315 205.794L249.941 241.458C248.293 244.658 245.296 246.949 241.776 247.699L201.525 256.279C198.005 257.029 194.334 256.16 191.524 253.911L160.204 228.839C157.293 226.509 155.631 222.959 155.705 219.231L156.497 179.699C156.57 176.029 158.318 172.595 161.243 170.377L193.78 145.7Z" fill="url(#paint1_radial_4150_10246)"/>
<path fillRule="evenodd" clipRule="evenodd" d="M227.173 183.403L195.29 183.378C192.628 183.376 190.472 181.216 190.474 178.554L190.475 177.624C190.477 174.962 192.637 172.805 195.299 172.807L227.181 172.833C232.275 172.837 235.972 175.69 238.185 178.698C240.326 181.609 241.559 185.26 241.556 188.406C241.552 193.404 239.797 197.391 236.953 200.287C234.226 203.064 230.813 204.529 227.85 205.268L227.811 205.277L191.059 213.848C188.466 214.453 185.874 212.841 185.269 210.248L185.058 209.343C184.454 206.75 186.065 204.158 188.658 203.554L194.959 202.084C197.139 201.576 198.683 199.633 198.684 197.394L198.688 193.486C198.69 190.824 200.85 188.667 203.512 188.669L204.805 188.67C207.266 188.672 209.26 190.669 209.258 193.131C209.256 196.002 211.93 198.127 214.727 197.474L225.33 195.002C227.05 194.568 228.47 193.839 229.411 192.881C230.24 192.037 230.984 190.74 230.986 188.398C230.987 187.726 230.609 186.238 229.67 184.962C228.803 183.784 227.952 183.404 227.173 183.403ZM209.237 220.089C209.237 220.09 209.238 220.091 209.239 220.091C209.24 220.091 209.241 220.092 209.241 220.093L209.237 225.841C209.235 228.503 207.075 230.66 204.413 230.658L203.478 230.657C200.816 230.655 198.66 228.495 198.662 225.833L198.665 222.278C198.666 220.113 200.112 218.215 202.198 217.637L206.829 216.355C208.041 216.019 209.239 216.931 209.238 218.189L209.237 220.089Z" fill="white"/>
<g filter="url(#filter1_ii_4150_10246)">
<path fillRule="evenodd" clipRule="evenodd" d="M283.645 356.28C299.206 351.113 312.809 346.594 312.696 344.875C312.691 344.797 312.721 344.587 312.783 344.256C359.537 319.635 361.245 233.991 316.339 151.952C272.422 71.7198 200.055 24.4135 152.082 43.4369L151.638 43.1665L124.788 55.7065L125.917 57.8439C126.985 57.2212 128.078 56.6311 129.196 56.0746C176.947 32.2922 251.621 78.7153 295.985 159.764C340.349 240.812 337.603 325.794 289.851 349.576C287.253 350.87 284.576 351.956 281.827 352.84L283.645 356.28Z" fill="url(#paint2_linear_4150_10246)"/>
</g>
<g filter="url(#filter2_i_4150_10246)">
<path fillRule="evenodd" clipRule="evenodd" d="M172.456 314.542C247.953 334.327 320.366 321.363 350.406 286.033C357.374 279.196 364.817 270.518 368.738 262.049C369.95 259.431 371.17 256.816 372.365 254.256L372.365 254.255C379.306 239.377 385.38 226.36 384.051 225.261C383.99 225.21 383.859 225.045 383.661 224.772C397.878 173.88 336.805 113.815 246.336 90.1054C157.858 66.918 73.7708 87.0229 54.6472 134.956L54.1459 135.093L42.4755 170.285C40.9802 173.249 39.7397 176.328 38.7699 179.52C23.2252 230.667 83.0786 291.119 172.456 314.542ZM371.777 245.093C387.289 194.052 327.41 133.687 238.032 110.264C148.655 86.8414 63.6251 109.23 48.113 160.27C32.6008 211.311 92.4805 271.676 181.858 295.099C271.235 318.522 356.265 296.133 371.777 245.093Z" fill="url(#paint3_linear_4150_10246)" fill-opacity="0.58"/>
</g>
<g filter="url(#filter3_ii_4150_10246)">
<path fillRule="evenodd" clipRule="evenodd" d="M372.387 254.208C379.319 239.35 385.378 226.359 384.051 225.261C383.99 225.211 383.858 225.045 383.661 224.772C397.878 173.88 336.805 113.815 246.335 90.1056C157.857 66.9182 73.7706 87.023 54.6471 134.956L54.1457 135.093L44.8177 163.222L47.147 163.869C47.428 162.665 47.7498 161.465 48.1128 160.271C63.6249 109.23 148.655 86.8415 238.032 110.265C327.41 133.688 387.289 194.052 371.777 245.093C370.933 247.87 369.883 250.562 368.638 253.167L372.387 254.208Z" fill="url(#paint4_linear_4150_10246)"/>
</g>
<g filter="url(#filter4_i_4150_10246)">
<path fillRule="evenodd" clipRule="evenodd" d="M296.976 281.908C345.81 221.027 363.48 149.616 343.457 107.786C340.053 98.637 335.161 88.3039 329.025 81.2725C327.128 79.098 325.237 76.9182 323.386 74.7843L323.385 74.7836C312.627 62.3817 303.215 51.5316 301.67 52.2966C301.599 52.3315 301.394 52.3843 301.065 52.4538C260.383 18.7317 180.644 50.0273 122.126 122.983C64.8966 194.333 48.991 279.314 84.9711 316.311L84.8918 316.824L112.273 341.822C114.371 344.396 116.677 346.783 119.197 348.97C159.57 384.008 239.165 353.983 296.976 281.908ZM314.779 71.5867C274.49 36.6219 194.963 66.7056 137.152 138.781C79.3406 210.856 65.1361 297.629 105.425 332.593C145.715 367.558 225.241 337.475 283.053 265.4C340.864 193.325 355.068 106.552 314.779 71.5867Z" fill="url(#paint5_linear_4150_10246)" fill-opacity="0.58"/>
</g>
<g filter="url(#filter5_ii_4150_10246)">
<path fillRule="evenodd" clipRule="evenodd" d="M323.352 74.7447C312.608 62.3594 303.214 51.5325 301.67 52.2967C301.599 52.3317 301.394 52.3844 301.065 52.4539C260.384 18.7319 180.644 50.0275 122.126 122.983C64.8967 194.333 48.9911 279.314 84.9712 316.311L84.8919 316.824L106.778 336.805L108.318 334.942C107.333 334.194 106.368 333.412 105.426 332.594C65.1363 297.629 79.3407 210.856 137.152 138.781C194.963 66.7058 274.49 36.6221 314.779 71.5869C316.971 73.4893 319.002 75.5451 320.873 77.7435L323.352 74.7447Z" fill="url(#paint6_linear_4150_10246)"/>
</g>
<g filter="url(#filter6_i_4150_10246)">
<path fillRule="evenodd" clipRule="evenodd" d="M91.524 209.268C101.037 286.732 139.841 349.23 183.771 364.089C192.699 368.037 203.513 371.746 212.831 372.26C215.712 372.419 218.593 372.587 221.413 372.751L221.414 372.751C237.804 373.703 252.143 374.537 252.674 372.896C252.699 372.821 252.804 372.637 252.984 372.353C305.528 366.758 338.774 287.813 327.375 194.985C316.227 104.201 266.473 33.4947 214.866 33.437L214.554 33.0217L177.54 35.1813C174.234 34.8871 170.914 34.8724 167.59 35.1504C114.318 39.606 80.2625 117.561 91.524 209.268ZM229.71 368.819C282.871 364.373 316.836 286.425 305.575 194.718C294.313 103.012 242.089 32.273 188.929 36.7193C135.769 41.1656 101.803 119.113 113.065 210.82C124.326 302.527 176.55 373.265 229.71 368.819Z" fill="url(#paint7_linear_4150_10246)" fill-opacity="0.58"/>
</g>
<g filter="url(#filter7_ii_4150_10246)">
<path fillRule="evenodd" clipRule="evenodd" d="M221.466 372.754C237.834 373.705 252.144 374.535 252.674 372.896C252.699 372.821 252.804 372.637 252.984 372.353C305.528 366.758 338.774 287.813 327.375 194.985C316.227 104.201 266.473 33.4947 214.866 33.437L214.554 33.0218L184.969 34.7479L185.229 37.1515C186.451 36.9677 187.685 36.8234 188.929 36.7193C242.089 32.273 294.313 103.012 305.575 194.719C316.836 286.425 282.87 364.373 229.71 368.819C226.818 369.061 223.928 369.08 221.048 368.886L221.466 372.754Z" fill="url(#paint8_linear_4150_10246)"/>
</g>
<g filter="url(#filter8_i_4150_10246)">
<path fillRule="evenodd" clipRule="evenodd" d="M151.456 98.5577C84.7944 143.519 47.0426 206.355 55.9388 250.906C56.8894 260.401 59.0312 271.392 63.3547 279.587C64.6917 282.122 66.0205 284.659 67.3213 287.144L67.3217 287.144C74.8818 301.582 81.4961 314.214 83.2852 313.886C83.367 313.871 83.591 313.874 83.9465 313.892C116.172 356.064 206.221 346.882 286.103 293.003C364.226 240.311 403.922 164.228 377.4 120.167L377.622 119.703L356.567 89.1486C355.136 86.1873 353.44 83.3475 351.472 80.6437C319.923 37.3093 230.373 45.3297 151.456 98.5577ZM75.2258 292.353C106.708 335.597 196.205 327.503 275.122 274.275C354.04 221.047 392.493 142.841 361.011 99.5975C329.529 56.3537 240.032 64.4475 161.114 117.676C82.1971 170.904 43.7434 249.109 75.2258 292.353Z" fill="url(#paint9_linear_4150_10246)" fill-opacity="0.34"/>
</g>
<g filter="url(#filter9_ii_4150_10246)">
<path fillRule="evenodd" clipRule="evenodd" d="M67.3465 287.19C74.8965 301.608 81.499 314.213 83.2861 313.886C83.3679 313.871 83.5919 313.874 83.9474 313.892C116.173 356.064 206.222 346.882 286.103 293.003C364.227 240.311 403.923 164.228 377.4 120.167L377.623 119.703L360.794 95.2812L358.707 96.6459C359.507 97.6017 360.275 98.5855 361.012 99.5975C392.494 142.841 354.041 221.047 275.123 274.275C196.206 327.503 106.709 335.597 75.2267 292.353C73.5138 290 72.008 287.544 70.7044 284.994L67.3465 287.19Z" fill="url(#paint10_linear_4150_10246)"/>
</g>
<defs>
<filter id="filter0_i_4150_10246" x="70.9656" y="39.2407" width="277.997" height="323.023" filterUnits="userSpaceOnUse" color-interpolation-filters="sRGB">
<feFlood flood-opacity="0" result="BackgroundImageFix"/>
<feBlend mode="normal" in="SourceGraphic" in2="BackgroundImageFix" result="shape"/>
<feColorMatrix in="SourceAlpha" type="matrix" values="0 0 0 0 0 0 0 0 0 0 0 0 0 0 0 0 0 0 127 0" result="hardAlpha"/>
<feOffset dx="2" dy="-2"/>
<feComposite in2="hardAlpha" operator="arithmetic" k2="-1" k3="1"/>
<feColorMatrix type="matrix" values="0 0 0 0 1 0 0 0 0 1 0 0 0 0 1 0 0 0 0.9 0"/>
<feBlend mode="normal" in2="shape" result="effect1_innerShadow_4150_10246"/>
</filter>
<filter id="filter1_ii_4150_10246" x="124.588" y="39.0407" width="225.374" height="317.239" filterUnits="userSpaceOnUse" color-interpolation-filters="sRGB">
<feFlood flood-opacity="0" result="BackgroundImageFix"/>
<feBlend mode="normal" in="SourceGraphic" in2="BackgroundImageFix" result="shape"/>
<feColorMatrix in="SourceAlpha" type="matrix" values="0 0 0 0 0 0 0 0 0 0 0 0 0 0 0 0 0 0 127 0" result="hardAlpha"/>
<feOffset dx="2"/>
<feGaussianBlur stdDeviation="0.5"/>
<feComposite in2="hardAlpha" operator="arithmetic" k2="-1" k3="1"/>
<feColorMatrix type="matrix" values="0 0 0 0 0.65098 0 0 0 0 0.882353 0 0 0 0 0.87451 0 0 0 1 0"/>
<feBlend mode="normal" in2="shape" result="effect1_innerShadow_4150_10246"/>
<feColorMatrix in="SourceAlpha" type="matrix" values="0 0 0 0 0 0 0 0 0 0 0 0 0 0 0 0 0 0 127 0" result="hardAlpha"/>
<feOffset dx="-3" dy="-2"/>
<feGaussianBlur stdDeviation="0.1"/>
<feComposite in2="hardAlpha" operator="arithmetic" k2="-1" k3="1"/>
<feColorMatrix type="matrix" values="0 0 0 0 1 0 0 0 0 1 0 0 0 0 1 0 0 0 0.25 0"/>
<feBlend mode="normal" in2="effect1_innerShadow_4150_10246" result="effect2_innerShadow_4150_10246"/>
</filter>
<filter id="filter2_i_4150_10246" x="36.3135" y="80.4704" width="349.401" height="243.345" filterUnits="userSpaceOnUse" color-interpolation-filters="sRGB">
<feFlood flood-opacity="0" result="BackgroundImageFix"/>
<feBlend mode="normal" in="SourceGraphic" in2="BackgroundImageFix" result="shape"/>
<feColorMatrix in="SourceAlpha" type="matrix" values="0 0 0 0 0 0 0 0 0 0 0 0 0 0 0 0 0 0 127 0" result="hardAlpha"/>
<feOffset dx="2" dy="-2"/>
<feComposite in2="hardAlpha" operator="arithmetic" k2="-1" k3="1"/>
<feColorMatrix type="matrix" values="0 0 0 0 1 0 0 0 0 1 0 0 0 0 1 0 0 0 0.9 0"/>
<feBlend mode="normal" in2="shape" result="effect1_innerShadow_4150_10246"/>
</filter>
<filter id="filter3_ii_4150_10246" x="44.6177" y="80.2706" width="342.097" height="173.937" filterUnits="userSpaceOnUse" color-interpolation-filters="sRGB">
<feFlood flood-opacity="0" result="BackgroundImageFix"/>
<feBlend mode="normal" in="SourceGraphic" in2="BackgroundImageFix" result="shape"/>
<feColorMatrix in="SourceAlpha" type="matrix" values="0 0 0 0 0 0 0 0 0 0 0 0 0 0 0 0 0 0 127 0" result="hardAlpha"/>
<feOffset dx="2"/>
<feGaussianBlur stdDeviation="0.5"/>
<feComposite in2="hardAlpha" operator="arithmetic" k2="-1" k3="1"/>
<feColorMatrix type="matrix" values="0 0 0 0 0.65098 0 0 0 0 0.882353 0 0 0 0 0.87451 0 0 0 1 0"/>
<feBlend mode="normal" in2="shape" result="effect1_innerShadow_4150_10246"/>
<feColorMatrix in="SourceAlpha" type="matrix" values="0 0 0 0 0 0 0 0 0 0 0 0 0 0 0 0 0 0 127 0" result="hardAlpha"/>
<feOffset dx="-3" dy="-2"/>
<feGaussianBlur stdDeviation="0.1"/>
<feComposite in2="hardAlpha" operator="arithmetic" k2="-1" k3="1"/>
<feColorMatrix type="matrix" values="0 0 0 0 1 0 0 0 0 1 0 0 0 0 1 0 0 0 0.25 0"/>
<feBlend mode="normal" in2="effect1_innerShadow_4150_10246" result="effect2_innerShadow_4150_10246"/>
</filter>
<filter id="filter4_i_4150_10246" x="65.793" y="38.8973" width="285.768" height="324.709" filterUnits="userSpaceOnUse" color-interpolation-filters="sRGB">
<feFlood flood-opacity="0" result="BackgroundImageFix"/>
<feBlend mode="normal" in="SourceGraphic" in2="BackgroundImageFix" result="shape"/>
<feColorMatrix in="SourceAlpha" type="matrix" values="0 0 0 0 0 0 0 0 0 0 0 0 0 0 0 0 0 0 127 0" result="hardAlpha"/>
<feOffset dx="2" dy="-2"/>
<feComposite in2="hardAlpha" operator="arithmetic" k2="-1" k3="1"/>
<feColorMatrix type="matrix" values="0 0 0 0 1 0 0 0 0 1 0 0 0 0 1 0 0 0 0.9 0"/>
<feBlend mode="normal" in2="shape" result="effect1_innerShadow_4150_10246"/>
</filter>
<filter id="filter5_ii_4150_10246" x="65.5931" y="38.6975" width="258.758" height="298.108" filterUnits="userSpaceOnUse" color-interpolation-filters="sRGB">
<feFlood flood-opacity="0" result="BackgroundImageFix"/>
<feBlend mode="normal" in="SourceGraphic" in2="BackgroundImageFix" result="shape"/>
<feColorMatrix in="SourceAlpha" type="matrix" values="0 0 0 0 0 0 0 0 0 0 0 0 0 0 0 0 0 0 127 0" result="hardAlpha"/>
<feOffset dx="2"/>
<feGaussianBlur stdDeviation="0.5"/>
<feComposite in2="hardAlpha" operator="arithmetic" k2="-1" k3="1"/>
<feColorMatrix type="matrix" values="0 0 0 0 0.65098 0 0 0 0 0.882353 0 0 0 0 0.87451 0 0 0 1 0"/>
<feBlend mode="normal" in2="shape" result="effect1_innerShadow_4150_10246"/>
<feColorMatrix in="SourceAlpha" type="matrix" values="0 0 0 0 0 0 0 0 0 0 0 0 0 0 0 0 0 0 127 0" result="hardAlpha"/>
<feOffset dx="-3" dy="-2"/>
<feGaussianBlur stdDeviation="0.1"/>
<feComposite in2="hardAlpha" operator="arithmetic" k2="-1" k3="1"/>
<feColorMatrix type="matrix" values="0 0 0 0 1 0 0 0 0 1 0 0 0 0 1 0 0 0 0.25 0"/>
<feBlend mode="normal" in2="effect1_innerShadow_4150_10246" result="effect2_innerShadow_4150_10246"/>
</filter>
<filter id="filter6_i_4150_10246" x="89.3721" y="33.0217" width="240.242" height="340.807" filterUnits="userSpaceOnUse" color-interpolation-filters="sRGB">
<feFlood flood-opacity="0" result="BackgroundImageFix"/>
<feBlend mode="normal" in="SourceGraphic" in2="BackgroundImageFix" result="shape"/>
<feColorMatrix in="SourceAlpha" type="matrix" values="0 0 0 0 0 0 0 0 0 0 0 0 0 0 0 0 0 0 127 0" result="hardAlpha"/>
<feOffset dx="2" dy="-2"/>
<feComposite in2="hardAlpha" operator="arithmetic" k2="-1" k3="1"/>
<feColorMatrix type="matrix" values="0 0 0 0 1 0 0 0 0 1 0 0 0 0 1 0 0 0 0.9 0"/>
<feBlend mode="normal" in2="shape" result="effect1_innerShadow_4150_10246"/>
</filter>
<filter id="filter7_ii_4150_10246" x="184.769" y="32.8217" width="145.845" height="341.007" filterUnits="userSpaceOnUse" color-interpolation-filters="sRGB">
<feFlood flood-opacity="0" result="BackgroundImageFix"/>
<feBlend mode="normal" in="SourceGraphic" in2="BackgroundImageFix" result="shape"/>
<feColorMatrix in="SourceAlpha" type="matrix" values="0 0 0 0 0 0 0 0 0 0 0 0 0 0 0 0 0 0 127 0" result="hardAlpha"/>
<feOffset dx="2"/>
<feGaussianBlur stdDeviation="0.5"/>
<feComposite in2="hardAlpha" operator="arithmetic" k2="-1" k3="1"/>
<feColorMatrix type="matrix" values="0 0 0 0 0.65098 0 0 0 0 0.882353 0 0 0 0 0.87451 0 0 0 1 0"/>
<feBlend mode="normal" in2="shape" result="effect1_innerShadow_4150_10246"/>
<feColorMatrix in="SourceAlpha" type="matrix" values="0 0 0 0 0 0 0 0 0 0 0 0 0 0 0 0 0 0 127 0" result="hardAlpha"/>
<feOffset dx="-3" dy="-2"/>
<feGaussianBlur stdDeviation="0.1"/>
<feComposite in2="hardAlpha" operator="arithmetic" k2="-1" k3="1"/>
<feColorMatrix type="matrix" values="0 0 0 0 1 0 0 0 0 1 0 0 0 0 1 0 0 0 0.25 0"/>
<feBlend mode="normal" in2="effect1_innerShadow_4150_10246" result="effect2_innerShadow_4150_10246"/>
</filter>
<filter id="filter8_i_4150_10246" x="54.6506" y="52.7387" width="330.955" height="287.607" filterUnits="userSpaceOnUse" color-interpolation-filters="sRGB">
<feFlood flood-opacity="0" result="BackgroundImageFix"/>
<feBlend mode="normal" in="SourceGraphic" in2="BackgroundImageFix" result="shape"/>
<feColorMatrix in="SourceAlpha" type="matrix" values="0 0 0 0 0 0 0 0 0 0 0 0 0 0 0 0 0 0 127 0" result="hardAlpha"/>
<feOffset dx="2" dy="-2"/>
<feComposite in2="hardAlpha" operator="arithmetic" k2="-1" k3="1"/>
<feColorMatrix type="matrix" values="0 0 0 0 1 0 0 0 0 1 0 0 0 0 1 0 0 0 0.9 0"/>
<feBlend mode="normal" in2="shape" result="effect1_innerShadow_4150_10246"/>
</filter>
<filter id="filter9_ii_4150_10246" x="67.1465" y="95.0812" width="319.46" height="245.265" filterUnits="userSpaceOnUse" color-interpolation-filters="sRGB">
<feFlood flood-opacity="0" result="BackgroundImageFix"/>
<feBlend mode="normal" in="SourceGraphic" in2="BackgroundImageFix" result="shape"/>
<feColorMatrix in="SourceAlpha" type="matrix" values="0 0 0 0 0 0 0 0 0 0 0 0 0 0 0 0 0 0 127 0" result="hardAlpha"/>
<feOffset dx="2"/>
<feGaussianBlur stdDeviation="0.5"/>
<feComposite in2="hardAlpha" operator="arithmetic" k2="-1" k3="1"/>
<feColorMatrix type="matrix" values="0 0 0 0 0.65098 0 0 0 0 0.882353 0 0 0 0 0.87451 0 0 0 1 0"/>
<feBlend mode="normal" in2="shape" result="effect1_innerShadow_4150_10246"/>
<feColorMatrix in="SourceAlpha" type="matrix" values="0 0 0 0 0 0 0 0 0 0 0 0 0 0 0 0 0 0 127 0" result="hardAlpha"/>
<feOffset dx="-3" dy="-2"/>
<feGaussianBlur stdDeviation="0.1"/>
<feComposite in2="hardAlpha" operator="arithmetic" k2="-1" k3="1"/>
<feColorMatrix type="matrix" values="0 0 0 0 1 0 0 0 0 1 0 0 0 0 1 0 0 0 0.25 0"/>
<feBlend mode="normal" in2="effect1_innerShadow_4150_10246" result="effect2_innerShadow_4150_10246"/>
</filter>
<linearGradient id="paint0_linear_4150_10246" x1="162.331" y1="40.0527" x2="256.804" y2="364.477" gradientUnits="userSpaceOnUse">
<stop stop-color="#CEF0F0"/>
<stop offset="0.241423" stop-color="#B0E6E9"/>
<stop offset="0.425983" stop-color="#DEF4F8"/>
<stop offset="0.874534" stop-color="#E1FBFF"/>
<stop offset="1" stop-color="#D6F1F6"/>
</linearGradient>
<radialGradient id="paint1_radial_4150_10246" cx="0" cy="0" r="1" gradientUnits="userSpaceOnUse" gradientTransform="translate(203.383 166.292) rotate(78.1024) scale(93.4657 95.8934)">
<stop stop-color="#71D9B8"/>
<stop offset="1" stop-color="#2FB78A"/>
</radialGradient>
<linearGradient id="paint2_linear_4150_10246" x1="162.331" y1="40.0528" x2="256.804" y2="364.477" gradientUnits="userSpaceOnUse">
<stop stop-color="#CEF0F1"/>
<stop offset="0.327862" stop-color="#DBF4F4"/>
<stop offset="0.495" stop-color="#DEF5F5"/>
<stop offset="0.727353" stop-color="#C6ECEB"/>
<stop offset="1" stop-color="#A6E1DF"/>
</linearGradient>
<linearGradient id="paint3_linear_4150_10246" x1="59.227" y1="125.183" x2="359.909" y2="279.346" gradientUnits="userSpaceOnUse">
<stop stop-color="#CEF0F0"/>
<stop offset="0.241423" stop-color="#B0E6E9"/>
<stop offset="0.425983" stop-color="#DEF4F8"/>
<stop offset="0.874534" stop-color="#E1FBFF"/>
<stop offset="1" stop-color="#D6F1F6"/>
</linearGradient>
<linearGradient id="paint4_linear_4150_10246" x1="59.2268" y1="125.183" x2="359.909" y2="279.346" gradientUnits="userSpaceOnUse">
<stop stop-color="#CEF0F1"/>
<stop offset="0.327862" stop-color="#DBF4F4"/>
<stop offset="0.495" stop-color="#DEF5F5"/>
<stop offset="0.727353" stop-color="#C6ECEB"/>
<stop offset="1" stop-color="#A6E1DF"/>
</linearGradient>
<linearGradient id="paint5_linear_4150_10246" x1="77.9123" y1="308.146" x2="341.223" y2="96.3833" gradientUnits="userSpaceOnUse">
<stop stop-color="#CEF0F0"/>
<stop offset="0.241423" stop-color="#B0E6E9"/>
<stop offset="0.425983" stop-color="#DEF4F8"/>
<stop offset="0.874534" stop-color="#E1FBFF"/>
<stop offset="1" stop-color="#D6F1F6"/>
</linearGradient>
<linearGradient id="paint6_linear_4150_10246" x1="77.9125" y1="308.146" x2="341.223" y2="96.3836" gradientUnits="userSpaceOnUse">
<stop stop-color="#CEF0F1"/>
<stop offset="0.327862" stop-color="#DBF4F4"/>
<stop offset="0.495" stop-color="#DEF5F5"/>
<stop offset="0.727353" stop-color="#C6ECEB"/>
<stop offset="1" stop-color="#A6E1DF"/>
</linearGradient>
<linearGradient id="paint7_linear_4150_10246" x1="225.64" y1="34.0812" x2="193.496" y2="370.448" gradientUnits="userSpaceOnUse">
<stop stop-color="#CEF0F0"/>
<stop offset="0.241423" stop-color="#B0E6E9"/>
<stop offset="0.425983" stop-color="#DEF4F8"/>
<stop offset="0.874534" stop-color="#E1FBFF"/>
<stop offset="1" stop-color="#D6F1F6"/>
</linearGradient>
<linearGradient id="paint8_linear_4150_10246" x1="225.64" y1="34.0812" x2="193.496" y2="370.448" gradientUnits="userSpaceOnUse">
<stop stop-color="#CEF0F1"/>
<stop offset="0.327862" stop-color="#DBF4F4"/>
<stop offset="0.495" stop-color="#DEF5F5"/>
<stop offset="0.727353" stop-color="#C6ECEB"/>
<stop offset="1" stop-color="#A6E1DF"/>
</linearGradient>
<linearGradient id="paint9_linear_4150_10246" x1="382.353" y1="129.666" x2="63.914" y2="280.851" gradientUnits="userSpaceOnUse">
<stop stop-color="#CEF0F0"/>
<stop offset="0.241423" stop-color="#B0E6E9"/>
<stop offset="0.425983" stop-color="#DEF4F8"/>
<stop offset="0.874534" stop-color="#E1FBFF"/>
<stop offset="1" stop-color="#D6F1F6"/>
</linearGradient>
<linearGradient id="paint10_linear_4150_10246" x1="382.353" y1="129.666" x2="63.9149" y2="280.851" gradientUnits="userSpaceOnUse">
<stop stop-color="#CEF0F1"/>
<stop offset="0.327862" stop-color="#DBF4F4"/>
<stop offset="0.495" stop-color="#DEF5F5"/>
<stop offset="0.727353" stop-color="#C6ECEB"/>
<stop offset="1" stop-color="#A6E1DF"/>
</linearGradient>
</defs>
</svg>
