<svg width="646" height="749" viewBox="0 0 646 749" fill="none" xmlns="http://www.w3.org/2000/svg">
<g filter="url(#filter0_f_4063_2118)">
<path d="M460.383 183.544C457.154 178.856 451.935 167.872 456.886 161.437C463.074 153.393 472.562 152.156 481.197 155.618C489.832 159.081 493.455 171.995 488.456 179.364C483.456 186.732 478.441 184.548 474.384 202.768C471.138 217.344 445.793 406.994 433.526 499.998C432.276 504.922 432.708 514.617 444.434 513.996C454.361 513.471 497.301 477.663 526.885 451.613C532.178 446.866 537.101 442.476 541.375 438.681C537.168 442.493 532.245 446.893 526.885 451.613C496.441 478.914 453.725 518.005 451.418 523.303C448.032 531.076 451.36 545.353 443.744 551.881C437.651 557.102 438.181 632.689 439.208 669.829C436.448 636.21 430.116 567.006 426.858 559.143C424.029 552.317 403.979 568.92 390.469 581.655C388.421 583.684 386.508 585.53 384.855 587.088C386.52 585.43 388.419 583.587 390.469 581.655C401.381 570.843 416.136 554.827 415.926 549.311C415.615 541.121 405.213 538.977 408.656 527.648C412.098 516.32 424.151 512.62 426.63 506.242C428.614 501.139 453.193 300.735 465.235 201.17C465.861 197.564 466.778 189.82 465.44 187.686C464.102 185.552 461.511 184.036 460.383 183.544Z" fill="#AAE0CF"/>
</g>
<g filter="url(#filter1_f_4063_2118)">
<path d="M466.053 184.224C457.843 188.006 437.511 198.522 421.87 210.324C402.318 225.077 72.0227 457.398 64.722 465.256C58.8814 471.542 27.8228 543.354 13.0235 578.474C22.8138 554.397 42.3961 503.501 42.4032 492.526C42.4102 481.551 21.3431 478.779 10.8086 478.765C18.9381 476.539 36.5384 468.732 41.9037 455.317C46.208 444.556 47.4112 427.631 47.5137 416.288C47.4398 413.643 47.4119 411.198 47.4188 409.093C47.4974 411.035 47.539 413.492 47.5137 416.288C47.9248 430.99 49.7612 451.868 54.9795 454.748C62.6758 458.995 440.488 189.496 448.367 180.995C454.67 174.194 456.828 171.157 457.12 170.488L470.531 173.943L466.053 184.224Z" fill="#ACFFE4"/>
</g>
<g filter="url(#filter2_iif_4063_2118)">
<path d="M30.3561 470.872C30.621 479.578 38.703 486.639 42.711 489.08C45.7902 488.632 53.551 488.85 59.9604 493.312C66.3698 497.774 156.578 605.498 200.881 658.803C155.912 600.634 66.1045 483.041 66.6224 478.016C67.2699 471.735 68.7832 458.671 55.5904 454.715C42.3976 450.759 30.0251 459.988 30.3561 470.872Z" fill="#EAFAF5"/>
</g>
<path d="M398.479 462.657C413.244 458.348 489.244 468.877 525.398 474.68C488.645 466.826 413.576 449.365 407.326 442.346C399.512 433.573 403.736 411.548 372.44 408.06C341.144 404.571 327.897 434.302 330.177 449.614C332.457 464.927 354.253 471.735 359.068 495.609C362.921 514.709 341.066 649.954 329.657 715.19C346.446 632.807 383.715 466.966 398.479 462.657Z" fill="#8FE87D"/>
<g filter="url(#filter3_f_4063_2118)">
<path d="M496.861 166.915C520.17 170.385 557.565 169.092 573.35 168.011L626.258 191.055C610.086 190.972 576.006 189.036 569.066 181.956C560.391 173.107 483.105 173.155 433.047 178.499C382.988 183.843 254.769 209.737 236.746 220.98C218.724 232.222 218.561 247.664 206.494 290.438C194.427 333.211 173.913 420.037 194.308 432.798C214.704 445.559 405.084 527.286 412.27 520.72C413.572 519.53 406.403 529.053 408.4 534.398C406.264 533.368 394.164 524.618 309.038 489.928C202.631 446.566 189.555 447.135 175.981 459.122C165.122 468.712 151.562 580.94 146.14 635.856C149.957 595.356 158.35 508.78 161.383 486.474C165.175 458.592 154.923 443.089 145.88 429.604C138.646 418.816 93.9333 375.357 72.4812 354.976C97.3576 375.258 149.763 415.484 160.372 414.139C173.634 412.457 204.351 282.344 207.911 257.047C211.472 231.749 197.854 226.713 191.335 223.873C186.335 221.695 145.653 226.088 123.466 228.855C121.811 229.115 120.962 229.212 120.698 229.204C121.583 229.091 122.508 228.974 123.466 228.855C127.976 228.146 138.467 226.222 159.384 221.889C195.125 214.486 202.713 200.489 203.616 187.457C204.338 177.032 192.375 110.07 186.304 77.8919C195.29 117.306 215.671 196.765 225.31 199.293C237.358 202.452 244.808 199.73 273.512 198.211C302.215 196.692 447.381 171.616 452.04 167.083C454.844 164.355 438.302 153.067 423.249 143.84C417.895 140.859 413.066 137.961 409.595 135.768C413.488 137.981 418.288 140.798 423.249 143.84C435.098 150.437 449.512 157.44 457.444 158.1C466.852 158.883 468.579 142.555 468.114 129.758C467.719 126.864 467.543 124.191 467.533 121.923C467.795 124.203 468.01 126.892 468.114 129.758C470.077 144.153 477.454 164.026 496.861 166.915Z" fill="url(#paint0_linear_4063_2118)"/>
</g>
<g style="mix-blend-mode:soft-light">
<path fillRule="evenodd" clipRule="evenodd" d="M173.845 434.861C173.692 434.916 172.897 435.184 171.095 435.675C169.661 436.065 168.631 436.299 168.27 436.379C162.663 437.643 158.265 437.803 157.95 436.647C157.635 435.49 161.508 433.4 166.981 431.644L168.008 435.417C168.377 435.345 169.431 435.124 170.865 434.733C172.585 434.265 173.427 433.959 173.578 433.902L172.552 430.13C178.147 428.872 182.536 428.714 182.85 429.868C183.165 431.022 179.303 433.111 173.84 434.862L173.845 434.861ZM172.451 429.738L171.531 426.362L179.247 424.261L177.845 419.112L156.839 424.83L158.24 429.98L165.955 427.88L166.873 431.255C160.682 433.25 156.305 435.778 156.711 437.269C157.117 438.759 162.17 438.718 168.519 437.301L171.465 448.122L177.04 446.604L174.094 435.779C180.271 433.788 184.64 431.264 184.235 429.775C183.829 428.285 178.787 428.323 172.449 429.737L172.451 429.738Z" fill="white"/>
</g>
<g filter="url(#filter4_f_4063_2118)">
<path fillRule="evenodd" clipRule="evenodd" d="M596.029 207.721C614.892 204.959 626.069 196.741 629.3 192.977C641.161 179.156 636.473 155.411 612.906 147.055C583.446 136.611 567.085 158.422 565.738 167.679C564.365 177.113 567.224 181.795 569.955 186.268C572.819 190.96 575.543 195.421 573.097 204.893C569.603 218.426 500.144 291.805 453 341.61C435.689 359.898 421.387 375.007 414.464 382.808C388.687 411.854 369.014 410.445 351.114 400.859C333.214 391.273 238.593 248.931 235.896 237.315C235.167 234.172 234.261 232.158 233.524 230.685C234.942 229.051 236.129 227.192 237.027 225.129C240.276 217.671 238.999 209.276 234.389 202.551C234.31 202.256 234.225 201.953 234.131 201.643C232.684 196.859 243.324 170.305 251.605 153.436C252.955 150.883 254.144 148.565 255.104 146.639C254.022 148.62 252.84 150.92 251.605 153.436C245.223 165.501 235.232 182.817 228.676 188.825C226.543 190.78 224.428 192.031 222.506 192.704C222.383 192.649 222.26 192.594 222.135 192.54C208.633 186.659 193.409 191.715 188.131 203.832C182.853 215.95 189.521 230.54 203.023 236.421C206.751 238.045 210.611 238.835 214.356 238.873C215.385 239.053 216.538 238.899 217.805 238.729C221.214 238.272 225.451 237.704 230.331 243.244C239.713 253.893 348.165 407.629 333.895 434.229C322.479 455.509 280.487 475.802 260.918 483.289L41.2495 591.066C88.1894 568.453 197.823 516.784 260.837 491.009C320.696 466.526 326.722 468.729 340.383 473.725C344.698 475.303 349.776 477.16 357.553 478.542C389.949 484.299 404.611 458.168 405.668 443.414C406.513 431.611 415.599 409.654 420.036 400.151C470.84 337.159 577.165 210.483 596.029 207.721Z" fill="#5FD7B5"/>
</g>
<g filter="url(#filter5_f_4063_2118)">
<path d="M428.628 533.369L429.108 540.945L439.908 536.997C439.978 536.968 440.054 536.954 440.13 536.954C440.206 536.955 440.282 536.971 440.352 537.001C440.422 537.03 440.486 537.074 440.539 537.129C440.593 537.183 440.635 537.248 440.664 537.319L440.73 537.498L440.98 541.095C440.995 541.264 440.952 541.433 440.858 541.574C440.765 541.715 440.626 541.82 440.465 541.871L423.937 547.913L423.243 537.422L420.488 539.498L420.4 537.072L423.154 534.996L422.19 520.273C422.177 520.104 422.221 519.936 422.314 519.796C422.407 519.655 422.545 519.55 422.705 519.497L426.884 517.969C426.954 517.941 427.03 517.926 427.106 517.927C427.182 517.928 427.258 517.943 427.328 517.973C427.398 518.003 427.462 518.047 427.516 518.101C427.569 518.156 427.612 518.22 427.64 518.291L427.706 518.471L428.522 530.895L431.276 528.819L431.446 531.323L428.628 533.369Z" fill="white"/>
</g>
<g filter="url(#filter6_f_4063_2118)">
<ellipse cx="367.598" cy="442.573" rx="35.5553" ry="35.8289" fill="url(#paint1_radial_4063_2118)"/>
</g>
<g filter="url(#filter7_f_4063_2118)">
<ellipse cx="602.81" cy="176.421" rx="35.5553" ry="35.8289" fill="url(#paint2_radial_4063_2118)"/>
</g>
<g filter="url(#filter8_f_4063_2118)">
<ellipse cx="216.48" cy="214.372" rx="28.8844" ry="29.1066" fill="url(#paint3_radial_4063_2118)"/>
</g>
<g filter="url(#filter9_f_4063_2118)">
<ellipse cx="471.545" cy="171.009" rx="19.5419" ry="19.6922" fill="url(#paint4_radial_4063_2118)"/>
</g>
<g style="mix-blend-mode:soft-light" filter="url(#filter10_f_4063_2118)">
<path d="M481.692 167.111C482.48 164.341 480.526 162.543 477.716 161.149L479.167 157.445L476.912 156.563L475.5 160.169C474.908 159.937 474.297 159.711 473.691 159.487L475.113 155.858L472.86 154.975L471.409 158.677C470.917 158.496 470.434 158.318 469.967 158.135L469.971 158.123L466.862 156.904L465.92 159.312C465.92 159.312 467.597 159.933 467.558 159.952C468.47 160.31 468.56 160.957 468.468 161.448L466.815 165.667C466.878 165.692 466.959 165.727 467.047 165.776C466.972 165.747 466.892 165.715 466.809 165.683L464.494 171.593C464.341 171.865 463.993 172.257 463.354 172.008C463.373 172.045 461.716 171.366 461.716 171.366L460.214 173.883L463.147 175.032C463.693 175.247 464.226 175.466 464.753 175.676L463.287 179.422L465.538 180.304L466.99 176.598C467.603 176.853 468.199 177.092 468.784 177.321L467.338 181.009L469.593 181.892L471.057 178.153C474.933 179.42 477.959 179.504 479.682 176.074C481.07 173.312 480.223 171.506 478.274 170.147C479.842 169.993 481.118 169.14 481.692 167.112L481.692 167.111ZM475.401 173.885C474.306 176.685 469.638 174.489 468.109 173.892L470.054 168.93C471.582 169.529 476.545 170.966 475.401 173.885ZM477.095 166.473C476.097 169.019 472.216 167.156 470.943 166.658L472.706 162.157C473.979 162.656 478.135 163.817 477.095 166.473Z" fill="white"/>
</g>
<path d="M366.702 404.096C369.932 402.58 373.67 402.58 376.9 404.096L401.835 415.8C405.157 417.36 407.583 420.354 408.42 423.927L414.464 449.736C415.314 453.366 414.428 457.185 412.067 460.071L394.989 480.945C392.71 483.73 389.301 485.346 385.701 485.346H357.901C354.302 485.346 350.893 483.73 348.613 480.945L331.535 460.071C329.174 457.185 328.288 453.366 329.139 449.736L335.182 423.927C336.019 420.354 338.445 417.36 341.767 415.8L366.702 404.096Z" fill="url(#paint5_radial_4063_2118)"/>
<path fillRule="evenodd" clipRule="evenodd" d="M386.307 435.968L362.979 431.373C361.031 430.989 359.763 429.099 360.146 427.151L360.28 426.471C360.664 424.523 362.554 423.255 364.502 423.639L387.83 428.233C391.557 428.967 393.853 431.586 395.041 434.105C396.19 436.542 396.569 439.392 396.115 441.694C395.395 445.351 393.538 448.016 391.041 449.728C388.647 451.368 385.939 451.951 383.664 452.066L383.635 452.067L355.508 453.064C353.524 453.135 351.859 451.583 351.788 449.599L351.764 448.906C351.693 446.922 353.245 445.257 355.229 445.186L360.051 445.015C361.72 444.956 363.128 443.756 363.451 442.118L364.014 439.258C364.397 437.31 366.288 436.042 368.236 436.426L369.182 436.612C370.983 436.967 372.155 438.714 371.801 440.515C371.387 442.617 373.039 444.555 375.179 444.479L383.294 444.191C384.615 444.121 385.759 443.791 386.584 443.225C387.312 442.726 388.043 441.884 388.381 440.17C388.477 439.679 388.415 438.536 387.911 437.467C387.446 436.48 386.877 436.08 386.307 435.968ZM367.916 460.241C367.915 460.242 367.916 460.243 367.917 460.243C367.918 460.243 367.918 460.244 367.918 460.245L367.09 464.45C366.706 466.398 364.816 467.667 362.868 467.283L362.184 467.148C360.237 466.765 358.968 464.874 359.352 462.926L359.864 460.326C360.176 458.741 361.507 457.559 363.117 457.436L366.689 457.162C367.625 457.091 368.371 457.93 368.189 458.851L367.916 460.241Z" fill="white"/>
<g style="mix-blend-mode:soft-light">
<path fillRule="evenodd" clipRule="evenodd" d="M609.067 175.515C608.87 175.604 607.847 176.049 605.513 176.902C603.656 177.581 602.318 178.007 601.847 178.154C594.558 180.46 588.745 181.167 588.198 179.67C587.651 178.172 592.549 174.966 599.606 172.022L601.392 176.908C601.874 176.771 603.246 176.359 605.102 175.68C607.33 174.866 608.412 174.365 608.606 174.273L606.82 169.388C614.096 167.091 619.896 166.388 620.442 167.882C620.989 169.377 616.104 172.58 609.06 175.515L609.067 175.515ZM606.642 168.88L605.044 164.508L615.034 160.855L612.597 154.187L585.395 164.131L587.833 170.799L597.822 167.148L599.42 171.519C591.437 174.86 585.92 178.703 586.626 180.633C587.331 182.564 594.025 181.941 602.282 179.348L607.404 193.36L614.624 190.721L609.5 176.703C617.464 173.369 622.972 169.531 622.267 167.603C621.562 165.674 614.883 166.291 606.64 168.879L606.642 168.88Z" fill="white"/>
</g>
<g filter="url(#filter11_f_4063_2118)">
<path d="M42.6832 455.202L42.6824 456.047L49.8587 477.629L50.1795 477.746L59.5634 467.199L42.6832 455.202Z" fill="#EAEDFD"/>
<path d="M43.7137 454.346L37.8809 475.609L51.2192 476.906L47.7317 466.423L43.7137 454.346Z" fill="white"/>
<path d="M51.624 480.183L51.5363 480.387L54.0304 487.945L54.2838 488.243L60.7927 469.816L51.624 480.183Z" fill="#58AC6F"/>
<path d="M55.0535 487.475L52.392 479.41L39.3813 478.136L55.0535 487.475Z" fill="white"/>
<path d="M50.6007 477.763L59.6409 467.53L47.2476 467.598L50.6007 477.763Z" fill="white"/>
<path d="M38.3876 475.788L51.2191 477.048L47.8659 466.883L38.3876 475.788Z" fill="#D9D9D9"/>
</g>
<g style="mix-blend-mode:soft-light">
<path d="M210.277 226.712C209.193 226.498 208.488 225.446 208.701 224.363L213.106 202.032C213.319 200.949 214.371 200.243 215.455 200.457L221.877 201.724C225.26 202.391 227.588 203.563 228.862 205.241C230.16 206.923 230.572 208.965 230.098 211.368C229.818 212.789 229.235 214.063 228.351 215.187C227.467 216.312 226.203 217.106 224.558 217.571C222.937 218.041 220.852 218.025 218.302 217.522L217.874 217.438C216.791 217.224 215.739 217.929 215.525 219.013L214.254 225.458C214.04 226.542 212.988 227.247 211.905 227.033L210.277 226.712ZM207.932 222.162C206.947 221.968 206.306 221.012 206.501 220.027C206.695 219.042 207.651 218.401 208.636 218.595L219.226 220.684C220.211 220.878 220.852 221.834 220.657 222.819C220.463 223.804 219.507 224.445 218.522 224.251L207.932 222.162ZM209.38 215.762C208.296 215.548 207.591 214.497 207.805 213.413L207.93 212.778C208.144 211.694 209.196 210.989 210.279 211.203L217.129 212.554C218.213 212.767 218.918 213.819 218.704 214.903L218.579 215.538C218.365 216.622 217.313 217.327 216.23 217.113L209.38 215.762ZM218.65 212.854C219.704 213.061 220.633 213.13 221.436 213.059C222.245 212.964 222.908 212.7 223.426 212.267C223.944 211.835 224.281 211.226 224.436 210.442C224.658 209.314 224.467 208.411 223.863 207.731C223.263 207.027 222.203 206.525 220.683 206.225L220.108 206.112C219.024 205.898 217.973 206.603 217.759 207.687L217.174 210.652C216.974 211.668 217.635 212.653 218.65 212.854Z" fill="white"/>
</g>
<defs>
<filter id="filter0_f_4063_2118" x="374.855" y="143.799" width="176.521" height="536.03" filterUnits="userSpaceOnUse" color-interpolation-filters="sRGB">
<feFlood flood-opacity="0" result="BackgroundImageFix"/>
<feBlend mode="normal" in="SourceGraphic" in2="BackgroundImageFix" result="shape"/>
<feGaussianBlur stdDeviation="5" result="effect1_foregroundBlur_4063_2118"/>
</filter>
<filter id="filter1_f_4063_2118" x="0.808594" y="160.488" width="479.722" height="427.985" filterUnits="userSpaceOnUse" color-interpolation-filters="sRGB">
<feFlood flood-opacity="0" result="BackgroundImageFix"/>
<feBlend mode="normal" in="SourceGraphic" in2="BackgroundImageFix" result="shape"/>
<feGaussianBlur stdDeviation="5" result="effect1_foregroundBlur_4063_2118"/>
</filter>
<filter id="filter2_iif_4063_2118" x="20.3496" y="443.782" width="190.531" height="225.021" filterUnits="userSpaceOnUse" color-interpolation-filters="sRGB">
<feFlood flood-opacity="0" result="BackgroundImageFix"/>
<feBlend mode="normal" in="SourceGraphic" in2="BackgroundImageFix" result="shape"/>
<feColorMatrix in="SourceAlpha" type="matrix" values="0 0 0 0 0 0 0 0 0 0 0 0 0 0 0 0 0 0 127 0" result="hardAlpha"/>
<feOffset dy="4"/>
<feGaussianBlur stdDeviation="2"/>
<feComposite in2="hardAlpha" operator="arithmetic" k2="-1" k3="1"/>
<feColorMatrix type="matrix" values="0 0 0 0 1 0 0 0 0 1 0 0 0 0 1 0 0 0 0.25 0"/>
<feBlend mode="normal" in2="shape" result="effect1_innerShadow_4063_2118"/>
<feColorMatrix in="SourceAlpha" type="matrix" values="0 0 0 0 0 0 0 0 0 0 0 0 0 0 0 0 0 0 127 0" result="hardAlpha"/>
<feOffset dy="-3"/>
<feGaussianBlur stdDeviation="2"/>
<feComposite in2="hardAlpha" operator="arithmetic" k2="-1" k3="1"/>
<feColorMatrix type="matrix" values="0 0 0 0 0.695833 0 0 0 0 0.695833 0 0 0 0 1 0 0 0 1 0"/>
<feBlend mode="normal" in2="effect1_innerShadow_4063_2118" result="effect2_innerShadow_4063_2118"/>
<feGaussianBlur stdDeviation="5" result="effect3_foregroundBlur_4063_2118"/>
</filter>
<filter id="filter3_f_4063_2118" x="68.4812" y="73.8918" width="561.777" height="565.964" filterUnits="userSpaceOnUse" color-interpolation-filters="sRGB">
<feFlood flood-opacity="0" result="BackgroundImageFix"/>
<feBlend mode="normal" in="SourceGraphic" in2="BackgroundImageFix" result="shape"/>
<feGaussianBlur stdDeviation="2" result="effect1_foregroundBlur_4063_2118"/>
</filter>
<filter id="filter4_f_4063_2118" x="31.2495" y="134.286" width="614.323" height="466.779" filterUnits="userSpaceOnUse" color-interpolation-filters="sRGB">
<feFlood flood-opacity="0" result="BackgroundImageFix"/>
<feBlend mode="normal" in="SourceGraphic" in2="BackgroundImageFix" result="shape"/>
<feGaussianBlur stdDeviation="5" result="effect1_foregroundBlur_4063_2118"/>
</filter>
<filter id="filter5_f_4063_2118" x="416.4" y="513.927" width="28.583" height="37.9863" filterUnits="userSpaceOnUse" color-interpolation-filters="sRGB">
<feFlood flood-opacity="0" result="BackgroundImageFix"/>
<feBlend mode="normal" in="SourceGraphic" in2="BackgroundImageFix" result="shape"/>
<feGaussianBlur stdDeviation="2" result="effect1_foregroundBlur_4063_2118"/>
</filter>
<filter id="filter6_f_4063_2118" x="328.042" y="402.744" width="79.1106" height="79.6577" filterUnits="userSpaceOnUse" color-interpolation-filters="sRGB">
<feFlood flood-opacity="0" result="BackgroundImageFix"/>
<feBlend mode="normal" in="SourceGraphic" in2="BackgroundImageFix" result="shape"/>
<feGaussianBlur stdDeviation="2" result="effect1_foregroundBlur_4063_2118"/>
</filter>
<filter id="filter7_f_4063_2118" x="563.254" y="136.592" width="79.1106" height="79.6577" filterUnits="userSpaceOnUse" color-interpolation-filters="sRGB">
<feFlood flood-opacity="0" result="BackgroundImageFix"/>
<feBlend mode="normal" in="SourceGraphic" in2="BackgroundImageFix" result="shape"/>
<feGaussianBlur stdDeviation="2" result="effect1_foregroundBlur_4063_2118"/>
</filter>
<filter id="filter8_f_4063_2118" x="183.595" y="181.265" width="65.7688" height="66.2132" filterUnits="userSpaceOnUse" color-interpolation-filters="sRGB">
<feFlood flood-opacity="0" result="BackgroundImageFix"/>
<feBlend mode="normal" in="SourceGraphic" in2="BackgroundImageFix" result="shape"/>
<feGaussianBlur stdDeviation="2" result="effect1_foregroundBlur_4063_2118"/>
</filter>
<filter id="filter9_f_4063_2118" x="448.003" y="147.317" width="47.0837" height="47.3844" filterUnits="userSpaceOnUse" color-interpolation-filters="sRGB">
<feFlood flood-opacity="0" result="BackgroundImageFix"/>
<feBlend mode="normal" in="SourceGraphic" in2="BackgroundImageFix" result="shape"/>
<feGaussianBlur stdDeviation="2" result="effect1_foregroundBlur_4063_2118"/>
</filter>
<filter id="filter10_f_4063_2118" x="456.214" y="150.975" width="29.6543" height="34.9163" filterUnits="userSpaceOnUse" color-interpolation-filters="sRGB">
<feFlood flood-opacity="0" result="BackgroundImageFix"/>
<feBlend mode="normal" in="SourceGraphic" in2="BackgroundImageFix" result="shape"/>
<feGaussianBlur stdDeviation="2" result="effect1_foregroundBlur_4063_2118"/>
</filter>
<filter id="filter11_f_4063_2118" x="36.8809" y="453.346" width="24.9119" height="35.8972" filterUnits="userSpaceOnUse" color-interpolation-filters="sRGB">
<feFlood flood-opacity="0" result="BackgroundImageFix"/>
<feBlend mode="normal" in="SourceGraphic" in2="BackgroundImageFix" result="shape"/>
<feGaussianBlur stdDeviation="0.5" result="effect1_foregroundBlur_4063_2118"/>
</filter>
<linearGradient id="paint0_linear_4063_2118" x1="420.642" y1="101.5" x2="181.245" y2="651.146" gradientUnits="userSpaceOnUse">
<stop stop-color="#ACE1D0"/>
<stop offset="1" stop-color="#BDEADC"/>
</linearGradient>
<radialGradient id="paint1_radial_4063_2118" cx="0" cy="0" r="1" gradientUnits="userSpaceOnUse" gradientTransform="translate(363.222 429.174) rotate(84.9201) scale(49.4219 49.0446)">
<stop stop-color="#C2FFBF"/>
<stop offset="1" stop-color="#51BF35"/>
</radialGradient>
<radialGradient id="paint2_radial_4063_2118" cx="0" cy="0" r="1" gradientUnits="userSpaceOnUse" gradientTransform="translate(598.434 163.022) rotate(84.9201) scale(49.4219 49.0446)">
<stop stop-color="#C2FFBF"/>
<stop offset="1" stop-color="#51BF35"/>
</radialGradient>
<radialGradient id="paint3_radial_4063_2118" cx="0" cy="0" r="1" gradientUnits="userSpaceOnUse" gradientTransform="translate(212.925 203.487) rotate(84.9201) scale(40.1493 39.8428)">
<stop stop-color="#C2FFBF"/>
<stop offset="1" stop-color="#51BF35"/>
</radialGradient>
<radialGradient id="paint4_radial_4063_2118" cx="0" cy="0" r="1" gradientUnits="userSpaceOnUse" gradientTransform="translate(469.14 163.645) rotate(84.9201) scale(27.1632 26.9558)">
<stop stop-color="#C2FFBF"/>
<stop offset="1" stop-color="#51BF35"/>
</radialGradient>
<radialGradient id="paint5_radial_4063_2118" cx="0" cy="0" r="1" gradientUnits="userSpaceOnUse" gradientTransform="translate(371.801 420) rotate(90.1357) scale(69.7033 71.5137)">
<stop stop-color="#71D9B8"/>
<stop offset="1" stop-color="#2FB78A"/>
</radialGradient>
</defs>
</svg>
